<svg width="3840" height="2400" viewBox="0 0 3840 2400" xmlns="http://www.w3.org/2000/svg">
  <defs>
    
      <pattern id="gridPattern" width="100" height="100" patternUnits="userSpaceOnUse">
        <path d="M 100 0 L 0 0 0 100" fill="none" stroke="#f1f5f9" stroke-width="2"/>
      </pattern>
    
    <filter id="glow" x="-20%" y="-20%" width="140%" height="140%">
      <feGaussianBlur stdDeviation="15" result="blur" />
      <feComposite in="SourceGraphic" in2="blur" operator="over" />
    </filter>
    <filter id="shadow" x="-10%" y="-10%" width="120%" height="120%">
      <feDropShadow dx="0" dy="40" stdDeviation="50" flood-opacity="0.15" />
    </filter>
    <filter id="hugeBlur" x="-50%" y="-50%" width="200%" height="200%">
      <feGaussianBlur stdDeviation="150" />
    </filter>
    <radialGradient id="radarSweep" cx="50%" cy="50%" r="50%">
      <stop offset="0%" stop-color="#6366f1" stop-opacity="1"/>
      <stop offset="100%" stop-color="#ffffff" stop-opacity="0"/>
    </radialGradient>
  </defs>
  
  <rect width="100%" height="100%" fill="#ffffff" />
  <g transform="translate(1920, 1200) scale(1, 0.5) rotate(45)"><rect x="-1000" y="-1000" width="96" height="96" fill="#f1f5f9" opacity="0.5"/><rect x="-1000" y="-900" width="96" height="96" fill="#f1f5f9" opacity="0.5"/><rect x="-1000" y="-800" width="96" height="96" fill="#f1f5f9" opacity="0.5"/><rect x="-1000" y="-700" width="96" height="96" fill="#f1f5f9" opacity="0.5"/><rect x="-1000" y="-600" width="96" height="96" fill="#f1f5f9" opacity="0.5"/><rect x="-1000" y="-500" width="96" height="96" fill="#f1f5f9" opacity="0.5"/><rect x="-1000" y="-400" width="96" height="96" fill="#f1f5f9" opacity="0.5"/><rect x="-1000" y="-300" width="96" height="96" fill="#f1f5f9" opacity="0.5"/><rect x="-1000" y="-200" width="96" height="96" fill="#f1f5f9" opacity="0.5"/><rect x="-1000" y="-100" width="96" height="96" fill="#f1f5f9" opacity="0.5"/><rect x="-1000" y="0" width="96" height="96" fill="#f1f5f9" opacity="0.5"/><rect x="-1000" y="100" width="96" height="96" fill="#f1f5f9" opacity="0.5"/><rect x="-1000" y="200" width="96" height="96" fill="#f1f5f9" opacity="0.5"/><rect x="-1000" y="300" width="96" height="96" fill="#f1f5f9" opacity="0.5"/><rect x="-1000" y="400" width="96" height="96" fill="#f1f5f9" opacity="0.5"/><rect x="-1000" y="500" width="96" height="96" fill="#f1f5f9" opacity="0.5"/><rect x="-1000" y="600" width="96" height="96" fill="#f1f5f9" opacity="0.5"/><rect x="-1000" y="700" width="96" height="96" fill="#f1f5f9" opacity="0.5"/><rect x="-1000" y="800" width="96" height="96" fill="#f1f5f9" opacity="0.5"/><rect x="-1000" y="900" width="96" height="96" fill="#f1f5f9" opacity="0.5"/><rect x="-1000" y="1000" width="96" height="96" fill="#f1f5f9" opacity="0.5"/><rect x="-900" y="-1000" width="96" height="96" fill="#f1f5f9" opacity="0.5"/><rect x="-900" y="-900" width="96" height="96" fill="#f1f5f9" opacity="0.5"/><rect x="-900" y="-800" width="96" height="96" fill="#f1f5f9" opacity="0.5"/><rect x="-900" y="-700" width="96" height="96" fill="#f1f5f9" opacity="0.5"/><rect x="-900" y="-600" width="96" height="96" fill="#f1f5f9" opacity="0.5"/><rect x="-900" y="-500" width="96" height="96" fill="#f1f5f9" opacity="0.5"/><rect x="-900" y="-400" width="96" height="96" fill="#f1f5f9" opacity="0.5"/><rect x="-900" y="-300" width="96" height="96" fill="#f1f5f9" opacity="0.5"/><rect x="-900" y="-200" width="96" height="96" fill="#f1f5f9" opacity="0.5"/><rect x="-900" y="-100" width="96" height="96" fill="#f1f5f9" opacity="0.5"/><rect x="-900" y="0" width="96" height="96" fill="#f1f5f9" opacity="0.5"/><rect x="-900" y="100" width="96" height="96" fill="#f1f5f9" opacity="0.5"/><rect x="-900" y="200" width="96" height="96" fill="#f1f5f9" opacity="0.5"/><rect x="-900" y="300" width="96" height="96" fill="#f1f5f9" opacity="0.5"/><rect x="-900" y="400" width="96" height="96" fill="#f1f5f9" opacity="0.5"/><rect x="-900" y="500" width="96" height="96" fill="#f1f5f9" opacity="0.5"/><rect x="-900" y="600" width="96" height="96" fill="#f1f5f9" opacity="0.5"/><rect x="-900" y="700" width="96" height="96" fill="#f1f5f9" opacity="0.5"/><rect x="-900" y="800" width="96" height="96" fill="#f1f5f9" opacity="0.5"/><rect x="-900" y="900" width="96" height="96" fill="#f1f5f9" opacity="0.5"/><rect x="-900" y="1000" width="96" height="96" fill="#f1f5f9" opacity="0.5"/><rect x="-800" y="-1000" width="96" height="96" fill="#f1f5f9" opacity="0.5"/><rect x="-800" y="-900" width="96" height="96" fill="#f1f5f9" opacity="0.5"/><rect x="-800" y="-800" width="96" height="96" fill="#f1f5f9" opacity="0.5"/><rect x="-800" y="-700" width="96" height="96" fill="#f1f5f9" opacity="0.5"/><rect x="-800" y="-600" width="96" height="96" fill="#f1f5f9" opacity="0.5"/><rect x="-800" y="-500" width="96" height="96" fill="#f1f5f9" opacity="0.5"/><rect x="-800" y="-400" width="96" height="96" fill="#f1f5f9" opacity="0.5"/><rect x="-800" y="-300" width="96" height="96" fill="#f1f5f9" opacity="0.5"/><rect x="-800" y="-200" width="96" height="96" fill="#f1f5f9" opacity="0.5"/><rect x="-800" y="-100" width="96" height="96" fill="#f1f5f9" opacity="0.5"/><rect x="-800" y="0" width="96" height="96" fill="#f1f5f9" opacity="0.5"/><rect x="-800" y="100" width="96" height="96" fill="#f1f5f9" opacity="0.5"/><rect x="-800" y="200" width="96" height="96" fill="#f1f5f9" opacity="0.5"/><rect x="-800" y="300" width="96" height="96" fill="#f1f5f9" opacity="0.5"/><rect x="-800" y="400" width="96" height="96" fill="#f1f5f9" opacity="0.5"/><rect x="-800" y="500" width="96" height="96" fill="#f1f5f9" opacity="0.5"/><rect x="-800" y="600" width="96" height="96" fill="#f1f5f9" opacity="0.5"/><rect x="-800" y="700" width="96" height="96" fill="#f1f5f9" opacity="0.5"/><rect x="-800" y="800" width="96" height="96" fill="#f1f5f9" opacity="0.5"/><rect x="-800" y="900" width="96" height="96" fill="#f1f5f9" opacity="0.5"/><rect x="-800" y="1000" width="96" height="96" fill="#f1f5f9" opacity="0.5"/><rect x="-700" y="-1000" width="96" height="96" fill="#f1f5f9" opacity="0.5"/><rect x="-700" y="-900" width="96" height="96" fill="#f1f5f9" opacity="0.5"/><rect x="-700" y="-800" width="96" height="96" fill="#f1f5f9" opacity="0.5"/><rect x="-700" y="-700" width="96" height="96" fill="#f1f5f9" opacity="0.5"/><rect x="-700" y="-600" width="96" height="96" fill="#f1f5f9" opacity="0.5"/><rect x="-700" y="-500" width="96" height="96" fill="#f1f5f9" opacity="0.5"/><rect x="-700" y="-400" width="96" height="96" fill="#f1f5f9" opacity="0.5"/><rect x="-700" y="-300" width="96" height="96" fill="#f1f5f9" opacity="0.5"/><rect x="-700" y="-200" width="96" height="96" fill="#f1f5f9" opacity="0.5"/><rect x="-700" y="-100" width="96" height="96" fill="#f1f5f9" opacity="0.5"/><rect x="-700" y="0" width="96" height="96" fill="#f1f5f9" opacity="0.5"/><rect x="-700" y="100" width="96" height="96" fill="#f1f5f9" opacity="0.5"/><rect x="-700" y="200" width="96" height="96" fill="#f1f5f9" opacity="0.5"/><rect x="-700" y="300" width="96" height="96" fill="#f1f5f9" opacity="0.5"/><rect x="-700" y="400" width="96" height="96" fill="#f1f5f9" opacity="0.5"/><rect x="-700" y="500" width="96" height="96" fill="#f1f5f9" opacity="0.5"/><rect x="-700" y="600" width="96" height="96" fill="#f1f5f9" opacity="0.5"/><rect x="-700" y="700" width="96" height="96" fill="#f1f5f9" opacity="0.5"/><rect x="-700" y="800" width="96" height="96" fill="#f1f5f9" opacity="0.5"/><rect x="-700" y="900" width="96" height="96" fill="#f1f5f9" opacity="0.5"/><rect x="-700" y="1000" width="96" height="96" fill="#f1f5f9" opacity="0.5"/><rect x="-600" y="-1000" width="96" height="96" fill="#f1f5f9" opacity="0.5"/><rect x="-600" y="-900" width="96" height="96" fill="#f1f5f9" opacity="0.5"/><rect x="-600" y="-800" width="96" height="96" fill="#f1f5f9" opacity="0.5"/><rect x="-600" y="-700" width="96" height="96" fill="#f1f5f9" opacity="0.5"/><rect x="-600" y="-600" width="96" height="96" fill="#f1f5f9" opacity="0.5"/><rect x="-600" y="-500" width="96" height="96" fill="#f1f5f9" opacity="0.5"/><rect x="-600" y="-400" width="96" height="96" fill="#f1f5f9" opacity="0.5"/><rect x="-600" y="-300" width="96" height="96" fill="#f1f5f9" opacity="0.5"/><rect x="-600" y="-200" width="96" height="96" fill="#f1f5f9" opacity="0.5"/><rect x="-600" y="-100" width="96" height="96" fill="#f1f5f9" opacity="0.5"/><rect x="-600" y="0" width="96" height="96" fill="#f1f5f9" opacity="0.5"/><rect x="-600" y="100" width="96" height="96" fill="#f1f5f9" opacity="0.5"/><rect x="-600" y="200" width="96" height="96" fill="#f1f5f9" opacity="0.5"/><rect x="-600" y="300" width="96" height="96" fill="#f1f5f9" opacity="0.5"/><rect x="-600" y="400" width="96" height="96" fill="#f1f5f9" opacity="0.5"/><rect x="-600" y="500" width="96" height="96" fill="#f1f5f9" opacity="0.5"/><rect x="-600" y="600" width="96" height="96" fill="#f1f5f9" opacity="0.5"/><rect x="-600" y="700" width="96" height="96" fill="#f1f5f9" opacity="0.5"/><rect x="-600" y="800" width="96" height="96" fill="#f1f5f9" opacity="0.5"/><rect x="-600" y="900" width="96" height="96" fill="#f1f5f9" opacity="0.5"/><rect x="-600" y="1000" width="96" height="96" fill="#f1f5f9" opacity="0.5"/><rect x="-500" y="-1000" width="96" height="96" fill="#f1f5f9" opacity="0.5"/><rect x="-500" y="-900" width="96" height="96" fill="#f1f5f9" opacity="0.5"/><rect x="-500" y="-800" width="96" height="96" fill="#f1f5f9" opacity="0.5"/><rect x="-500" y="-700" width="96" height="96" fill="#f1f5f9" opacity="0.5"/><rect x="-500" y="-600" width="96" height="96" fill="#f1f5f9" opacity="0.5"/><rect x="-500" y="-500" width="96" height="96" fill="#f1f5f9" opacity="0.5"/><rect x="-500" y="-400" width="96" height="96" fill="#f1f5f9" opacity="0.5"/><rect x="-500" y="-300" width="96" height="96" fill="#f1f5f9" opacity="0.5"/><rect x="-500" y="-200" width="96" height="96" fill="#f1f5f9" opacity="0.5"/><rect x="-500" y="-100" width="96" height="96" fill="#f1f5f9" opacity="0.5"/><rect x="-500" y="0" width="96" height="96" fill="#f1f5f9" opacity="0.5"/><rect x="-500" y="100" width="96" height="96" fill="#f1f5f9" opacity="0.5"/><rect x="-500" y="200" width="96" height="96" fill="#f1f5f9" opacity="0.5"/><rect x="-500" y="300" width="96" height="96" fill="#f1f5f9" opacity="0.5"/><rect x="-500" y="400" width="96" height="96" fill="#f1f5f9" opacity="0.5"/><rect x="-500" y="500" width="96" height="96" fill="#f1f5f9" opacity="0.5"/><rect x="-500" y="600" width="96" height="96" fill="#f1f5f9" opacity="0.5"/><rect x="-500" y="700" width="96" height="96" fill="#f1f5f9" opacity="0.5"/><rect x="-500" y="800" width="96" height="96" fill="#f1f5f9" opacity="0.5"/><rect x="-500" y="900" width="96" height="96" fill="#f1f5f9" opacity="0.5"/><rect x="-500" y="1000" width="96" height="96" fill="#f1f5f9" opacity="0.5"/><rect x="-400" y="-1000" width="96" height="96" fill="#f1f5f9" opacity="0.5"/><rect x="-400" y="-900" width="96" height="96" fill="#f1f5f9" opacity="0.5"/><rect x="-400" y="-800" width="96" height="96" fill="#f1f5f9" opacity="0.5"/><rect x="-400" y="-700" width="96" height="96" fill="#f1f5f9" opacity="0.5"/><rect x="-400" y="-600" width="96" height="96" fill="#f1f5f9" opacity="0.5"/><rect x="-400" y="-500" width="96" height="96" fill="#f1f5f9" opacity="0.5"/><rect x="-400" y="-400" width="96" height="96" fill="#f1f5f9" opacity="0.5"/><rect x="-400" y="-300" width="96" height="96" fill="#f1f5f9" opacity="0.5"/><rect x="-400" y="-200" width="96" height="96" fill="#f1f5f9" opacity="0.5"/><rect x="-400" y="-100" width="96" height="96" fill="#f1f5f9" opacity="0.5"/><rect x="-400" y="0" width="96" height="96" fill="#f1f5f9" opacity="0.5"/><rect x="-400" y="100" width="96" height="96" fill="#f1f5f9" opacity="0.5"/><rect x="-400" y="200" width="96" height="96" fill="#f1f5f9" opacity="0.5"/><rect x="-400" y="300" width="96" height="96" fill="#f1f5f9" opacity="0.5"/><rect x="-400" y="400" width="96" height="96" fill="#f1f5f9" opacity="0.5"/><rect x="-400" y="500" width="96" height="96" fill="#f1f5f9" opacity="0.5"/><rect x="-400" y="600" width="96" height="96" fill="#f1f5f9" opacity="0.5"/><rect x="-400" y="700" width="96" height="96" fill="#f1f5f9" opacity="0.5"/><rect x="-400" y="800" width="96" height="96" fill="#f1f5f9" opacity="0.5"/><rect x="-400" y="900" width="96" height="96" fill="#f1f5f9" opacity="0.5"/><rect x="-400" y="1000" width="96" height="96" fill="#f1f5f9" opacity="0.5"/><rect x="-300" y="-1000" width="96" height="96" fill="#f1f5f9" opacity="0.5"/><rect x="-300" y="-900" width="96" height="96" fill="#f1f5f9" opacity="0.5"/><rect x="-300" y="-800" width="96" height="96" fill="#f1f5f9" opacity="0.5"/><rect x="-300" y="-700" width="96" height="96" fill="#f1f5f9" opacity="0.5"/><rect x="-300" y="-600" width="96" height="96" fill="#f1f5f9" opacity="0.5"/><rect x="-300" y="-500" width="96" height="96" fill="#f1f5f9" opacity="0.5"/><rect x="-300" y="-400" width="96" height="96" fill="#f1f5f9" opacity="0.5"/><rect x="-300" y="-300" width="96" height="96" fill="#f1f5f9" opacity="0.5"/><rect x="-300" y="-200" width="96" height="96" fill="#f1f5f9" opacity="0.5"/><rect x="-300" y="-100" width="96" height="96" fill="#f1f5f9" opacity="0.5"/><rect x="-300" y="0" width="96" height="96" fill="#f1f5f9" opacity="0.5"/><rect x="-300" y="100" width="96" height="96" fill="#f1f5f9" opacity="0.5"/><rect x="-300" y="200" width="96" height="96" fill="#f1f5f9" opacity="0.5"/><rect x="-300" y="300" width="96" height="96" fill="#f1f5f9" opacity="0.5"/><rect x="-300" y="400" width="96" height="96" fill="#f1f5f9" opacity="0.5"/><rect x="-300" y="500" width="96" height="96" fill="#f1f5f9" opacity="0.5"/><rect x="-300" y="600" width="96" height="96" fill="#f1f5f9" opacity="0.5"/><rect x="-300" y="700" width="96" height="96" fill="#f1f5f9" opacity="0.5"/><rect x="-300" y="800" width="96" height="96" fill="#f1f5f9" opacity="0.5"/><rect x="-300" y="900" width="96" height="96" fill="#f1f5f9" opacity="0.5"/><rect x="-300" y="1000" width="96" height="96" fill="#f1f5f9" opacity="0.5"/><rect x="-200" y="-1000" width="96" height="96" fill="#f1f5f9" opacity="0.5"/><rect x="-200" y="-900" width="96" height="96" fill="#f1f5f9" opacity="0.5"/><rect x="-200" y="-800" width="96" height="96" fill="#f1f5f9" opacity="0.5"/><rect x="-200" y="-700" width="96" height="96" fill="#f1f5f9" opacity="0.5"/><rect x="-200" y="-600" width="96" height="96" fill="#f1f5f9" opacity="0.5"/><rect x="-200" y="-500" width="96" height="96" fill="#f1f5f9" opacity="0.5"/><rect x="-200" y="-400" width="96" height="96" fill="#f1f5f9" opacity="0.5"/><rect x="-200" y="-300" width="96" height="96" fill="#f1f5f9" opacity="0.5"/><rect x="-200" y="-200" width="96" height="96" fill="#f1f5f9" opacity="0.5"/><rect x="-200" y="-100" width="96" height="96" fill="#f1f5f9" opacity="0.5"/><rect x="-200" y="0" width="96" height="96" fill="#f1f5f9" opacity="0.5"/><rect x="-200" y="100" width="96" height="96" fill="#f1f5f9" opacity="0.5"/><rect x="-200" y="200" width="96" height="96" fill="#f1f5f9" opacity="0.5"/><rect x="-200" y="300" width="96" height="96" fill="#f1f5f9" opacity="0.5"/><rect x="-200" y="400" width="96" height="96" fill="#f1f5f9" opacity="0.5"/><rect x="-200" y="500" width="96" height="96" fill="#f1f5f9" opacity="0.5"/><rect x="-200" y="600" width="96" height="96" fill="#f1f5f9" opacity="0.5"/><rect x="-200" y="700" width="96" height="96" fill="#f1f5f9" opacity="0.5"/><rect x="-200" y="800" width="96" height="96" fill="#f1f5f9" opacity="0.5"/><rect x="-200" y="900" width="96" height="96" fill="#f1f5f9" opacity="0.5"/><rect x="-200" y="1000" width="96" height="96" fill="#f1f5f9" opacity="0.5"/><rect x="-100" y="-1000" width="96" height="96" fill="#f1f5f9" opacity="0.5"/><rect x="-100" y="-900" width="96" height="96" fill="#f1f5f9" opacity="0.5"/><rect x="-100" y="-800" width="96" height="96" fill="#f1f5f9" opacity="0.5"/><rect x="-100" y="-700" width="96" height="96" fill="#f1f5f9" opacity="0.5"/><rect x="-100" y="-600" width="96" height="96" fill="#f1f5f9" opacity="0.5"/><rect x="-100" y="-500" width="96" height="96" fill="#f1f5f9" opacity="0.5"/><rect x="-100" y="-400" width="96" height="96" fill="#f1f5f9" opacity="0.5"/><rect x="-100" y="-300" width="96" height="96" fill="#f1f5f9" opacity="0.5"/><rect x="-100" y="-200" width="96" height="96" fill="#f1f5f9" opacity="0.5"/><rect x="-100" y="-100" width="96" height="96" fill="#f1f5f9" opacity="0.5"/><rect x="-100" y="0" width="96" height="96" fill="#f1f5f9" opacity="0.5"/><rect x="-100" y="100" width="96" height="96" fill="#f1f5f9" opacity="0.5"/><rect x="-100" y="200" width="96" height="96" fill="#f1f5f9" opacity="0.5"/><rect x="-100" y="300" width="96" height="96" fill="#f1f5f9" opacity="0.5"/><rect x="-100" y="400" width="96" height="96" fill="#f1f5f9" opacity="0.5"/><rect x="-100" y="500" width="96" height="96" fill="#f1f5f9" opacity="0.5"/><rect x="-100" y="600" width="96" height="96" fill="#f1f5f9" opacity="0.5"/><rect x="-100" y="700" width="96" height="96" fill="#f1f5f9" opacity="0.5"/><rect x="-100" y="800" width="96" height="96" fill="#f1f5f9" opacity="0.5"/><rect x="-100" y="900" width="96" height="96" fill="#f1f5f9" opacity="0.5"/><rect x="-100" y="1000" width="96" height="96" fill="#f1f5f9" opacity="0.5"/><rect x="0" y="-1000" width="96" height="96" fill="#f1f5f9" opacity="0.5"/><rect x="0" y="-900" width="96" height="96" fill="#f1f5f9" opacity="0.5"/><rect x="0" y="-800" width="96" height="96" fill="#f1f5f9" opacity="0.5"/><rect x="0" y="-700" width="96" height="96" fill="#f1f5f9" opacity="0.5"/><rect x="0" y="-600" width="96" height="96" fill="#f1f5f9" opacity="0.5"/><rect x="0" y="-500" width="96" height="96" fill="#f1f5f9" opacity="0.5"/><rect x="0" y="-400" width="96" height="96" fill="#f1f5f9" opacity="0.5"/><rect x="0" y="-300" width="96" height="96" fill="#f1f5f9" opacity="0.5"/><rect x="0" y="-200" width="96" height="96" fill="#f1f5f9" opacity="0.5"/><rect x="0" y="-100" width="96" height="96" fill="#f1f5f9" opacity="0.5"/><rect x="0" y="0" width="96" height="96" fill="#f1f5f9" opacity="0.5"/><rect x="0" y="100" width="96" height="96" fill="#f1f5f9" opacity="0.5"/><rect x="0" y="200" width="96" height="96" fill="#f1f5f9" opacity="0.5"/><rect x="0" y="300" width="96" height="96" fill="#f1f5f9" opacity="0.5"/><rect x="0" y="400" width="96" height="96" fill="#f1f5f9" opacity="0.5"/><rect x="0" y="500" width="96" height="96" fill="#f1f5f9" opacity="0.5"/><rect x="0" y="600" width="96" height="96" fill="#f1f5f9" opacity="0.5"/><rect x="0" y="700" width="96" height="96" fill="#f1f5f9" opacity="0.5"/><rect x="0" y="800" width="96" height="96" fill="#f1f5f9" opacity="0.5"/><rect x="0" y="900" width="96" height="96" fill="#f1f5f9" opacity="0.5"/><rect x="0" y="1000" width="96" height="96" fill="#f1f5f9" opacity="0.5"/><rect x="100" y="-1000" width="96" height="96" fill="#f1f5f9" opacity="0.5"/><rect x="100" y="-900" width="96" height="96" fill="#f1f5f9" opacity="0.5"/><rect x="100" y="-800" width="96" height="96" fill="#f1f5f9" opacity="0.5"/><rect x="100" y="-700" width="96" height="96" fill="#f1f5f9" opacity="0.5"/><rect x="100" y="-600" width="96" height="96" fill="#f1f5f9" opacity="0.5"/><rect x="100" y="-500" width="96" height="96" fill="#f1f5f9" opacity="0.5"/><rect x="100" y="-400" width="96" height="96" fill="#f1f5f9" opacity="0.5"/><rect x="100" y="-300" width="96" height="96" fill="#f1f5f9" opacity="0.5"/><rect x="100" y="-200" width="96" height="96" fill="#f1f5f9" opacity="0.5"/><rect x="100" y="-100" width="96" height="96" fill="#f1f5f9" opacity="0.5"/><rect x="100" y="0" width="96" height="96" fill="#f1f5f9" opacity="0.5"/><rect x="100" y="100" width="96" height="96" fill="#f1f5f9" opacity="0.5"/><rect x="100" y="200" width="96" height="96" fill="#f1f5f9" opacity="0.5"/><rect x="100" y="300" width="96" height="96" fill="#f1f5f9" opacity="0.5"/><rect x="100" y="400" width="96" height="96" fill="#f1f5f9" opacity="0.5"/><rect x="100" y="500" width="96" height="96" fill="#f1f5f9" opacity="0.5"/><rect x="100" y="600" width="96" height="96" fill="#f1f5f9" opacity="0.5"/><rect x="100" y="700" width="96" height="96" fill="#f1f5f9" opacity="0.5"/><rect x="100" y="800" width="96" height="96" fill="#f1f5f9" opacity="0.5"/><rect x="100" y="900" width="96" height="96" fill="#f1f5f9" opacity="0.5"/><rect x="100" y="1000" width="96" height="96" fill="#f1f5f9" opacity="0.5"/><rect x="200" y="-1000" width="96" height="96" fill="#f1f5f9" opacity="0.5"/><rect x="200" y="-900" width="96" height="96" fill="#f1f5f9" opacity="0.5"/><rect x="200" y="-800" width="96" height="96" fill="#f1f5f9" opacity="0.5"/><rect x="200" y="-700" width="96" height="96" fill="#f1f5f9" opacity="0.5"/><rect x="200" y="-600" width="96" height="96" fill="#f1f5f9" opacity="0.5"/><rect x="200" y="-500" width="96" height="96" fill="#f1f5f9" opacity="0.5"/><rect x="200" y="-400" width="96" height="96" fill="#f1f5f9" opacity="0.5"/><rect x="200" y="-300" width="96" height="96" fill="#f1f5f9" opacity="0.5"/><rect x="200" y="-200" width="96" height="96" fill="#f1f5f9" opacity="0.5"/><rect x="200" y="-100" width="96" height="96" fill="#f1f5f9" opacity="0.5"/><rect x="200" y="0" width="96" height="96" fill="#f1f5f9" opacity="0.5"/><rect x="200" y="100" width="96" height="96" fill="#f1f5f9" opacity="0.5"/><rect x="200" y="200" width="96" height="96" fill="#f1f5f9" opacity="0.5"/><rect x="200" y="300" width="96" height="96" fill="#f1f5f9" opacity="0.5"/><rect x="200" y="400" width="96" height="96" fill="#f1f5f9" opacity="0.5"/><rect x="200" y="500" width="96" height="96" fill="#f1f5f9" opacity="0.5"/><rect x="200" y="600" width="96" height="96" fill="#f1f5f9" opacity="0.5"/><rect x="200" y="700" width="96" height="96" fill="#f1f5f9" opacity="0.5"/><rect x="200" y="800" width="96" height="96" fill="#f1f5f9" opacity="0.5"/><rect x="200" y="900" width="96" height="96" fill="#f1f5f9" opacity="0.5"/><rect x="200" y="1000" width="96" height="96" fill="#f1f5f9" opacity="0.5"/><rect x="300" y="-1000" width="96" height="96" fill="#f1f5f9" opacity="0.5"/><rect x="300" y="-900" width="96" height="96" fill="#f1f5f9" opacity="0.5"/><rect x="300" y="-800" width="96" height="96" fill="#f1f5f9" opacity="0.5"/><rect x="300" y="-700" width="96" height="96" fill="#f1f5f9" opacity="0.5"/><rect x="300" y="-600" width="96" height="96" fill="#f1f5f9" opacity="0.5"/><rect x="300" y="-500" width="96" height="96" fill="#f1f5f9" opacity="0.5"/><rect x="300" y="-400" width="96" height="96" fill="#f1f5f9" opacity="0.5"/><rect x="300" y="-300" width="96" height="96" fill="#f1f5f9" opacity="0.5"/><rect x="300" y="-200" width="96" height="96" fill="#f1f5f9" opacity="0.5"/><rect x="300" y="-100" width="96" height="96" fill="#f1f5f9" opacity="0.5"/><rect x="300" y="0" width="96" height="96" fill="#f1f5f9" opacity="0.5"/><rect x="300" y="100" width="96" height="96" fill="#f1f5f9" opacity="0.5"/><rect x="300" y="200" width="96" height="96" fill="#f1f5f9" opacity="0.5"/><rect x="300" y="300" width="96" height="96" fill="#f1f5f9" opacity="0.5"/><rect x="300" y="400" width="96" height="96" fill="#f1f5f9" opacity="0.5"/><rect x="300" y="500" width="96" height="96" fill="#f1f5f9" opacity="0.5"/><rect x="300" y="600" width="96" height="96" fill="#f1f5f9" opacity="0.5"/><rect x="300" y="700" width="96" height="96" fill="#f1f5f9" opacity="0.5"/><rect x="300" y="800" width="96" height="96" fill="#f1f5f9" opacity="0.5"/><rect x="300" y="900" width="96" height="96" fill="#f1f5f9" opacity="0.5"/><rect x="300" y="1000" width="96" height="96" fill="#f1f5f9" opacity="0.5"/><rect x="400" y="-1000" width="96" height="96" fill="#f1f5f9" opacity="0.5"/><rect x="400" y="-900" width="96" height="96" fill="#f1f5f9" opacity="0.5"/><rect x="400" y="-800" width="96" height="96" fill="#f1f5f9" opacity="0.5"/><rect x="400" y="-700" width="96" height="96" fill="#f1f5f9" opacity="0.5"/><rect x="400" y="-600" width="96" height="96" fill="#f1f5f9" opacity="0.5"/><rect x="400" y="-500" width="96" height="96" fill="#f1f5f9" opacity="0.5"/><rect x="400" y="-400" width="96" height="96" fill="#f1f5f9" opacity="0.5"/><rect x="400" y="-300" width="96" height="96" fill="#f1f5f9" opacity="0.5"/><rect x="400" y="-200" width="96" height="96" fill="#f1f5f9" opacity="0.5"/><rect x="400" y="-100" width="96" height="96" fill="#f1f5f9" opacity="0.5"/><rect x="400" y="0" width="96" height="96" fill="#f1f5f9" opacity="0.5"/><rect x="400" y="100" width="96" height="96" fill="#f1f5f9" opacity="0.5"/><rect x="400" y="200" width="96" height="96" fill="#f1f5f9" opacity="0.5"/><rect x="400" y="300" width="96" height="96" fill="#f1f5f9" opacity="0.5"/><rect x="400" y="400" width="96" height="96" fill="#f1f5f9" opacity="0.5"/><rect x="400" y="500" width="96" height="96" fill="#f1f5f9" opacity="0.5"/><rect x="400" y="600" width="96" height="96" fill="#f1f5f9" opacity="0.5"/><rect x="400" y="700" width="96" height="96" fill="#f1f5f9" opacity="0.5"/><rect x="400" y="800" width="96" height="96" fill="#f1f5f9" opacity="0.5"/><rect x="400" y="900" width="96" height="96" fill="#f1f5f9" opacity="0.5"/><rect x="400" y="1000" width="96" height="96" fill="#f1f5f9" opacity="0.5"/><rect x="500" y="-1000" width="96" height="96" fill="#f1f5f9" opacity="0.5"/><rect x="500" y="-900" width="96" height="96" fill="#f1f5f9" opacity="0.5"/><rect x="500" y="-800" width="96" height="96" fill="#f1f5f9" opacity="0.5"/><rect x="500" y="-700" width="96" height="96" fill="#f1f5f9" opacity="0.5"/><rect x="500" y="-600" width="96" height="96" fill="#f1f5f9" opacity="0.5"/><rect x="500" y="-500" width="96" height="96" fill="#f1f5f9" opacity="0.5"/><rect x="500" y="-400" width="96" height="96" fill="#f1f5f9" opacity="0.5"/><rect x="500" y="-300" width="96" height="96" fill="#f1f5f9" opacity="0.5"/><rect x="500" y="-200" width="96" height="96" fill="#f1f5f9" opacity="0.5"/><rect x="500" y="-100" width="96" height="96" fill="#f1f5f9" opacity="0.5"/><rect x="500" y="0" width="96" height="96" fill="#f1f5f9" opacity="0.5"/><rect x="500" y="100" width="96" height="96" fill="#f1f5f9" opacity="0.5"/><rect x="500" y="200" width="96" height="96" fill="#f1f5f9" opacity="0.5"/><rect x="500" y="300" width="96" height="96" fill="#f1f5f9" opacity="0.5"/><rect x="500" y="400" width="96" height="96" fill="#f1f5f9" opacity="0.5"/><rect x="500" y="500" width="96" height="96" fill="#f1f5f9" opacity="0.5"/><rect x="500" y="600" width="96" height="96" fill="#f1f5f9" opacity="0.5"/><rect x="500" y="700" width="96" height="96" fill="#f1f5f9" opacity="0.5"/><rect x="500" y="800" width="96" height="96" fill="#f1f5f9" opacity="0.5"/><rect x="500" y="900" width="96" height="96" fill="#f1f5f9" opacity="0.5"/><rect x="500" y="1000" width="96" height="96" fill="#f1f5f9" opacity="0.5"/><rect x="600" y="-1000" width="96" height="96" fill="#f1f5f9" opacity="0.5"/><rect x="600" y="-900" width="96" height="96" fill="#f1f5f9" opacity="0.5"/><rect x="600" y="-800" width="96" height="96" fill="#f1f5f9" opacity="0.5"/><rect x="600" y="-700" width="96" height="96" fill="#f1f5f9" opacity="0.5"/><rect x="600" y="-600" width="96" height="96" fill="#f1f5f9" opacity="0.5"/><rect x="600" y="-500" width="96" height="96" fill="#f1f5f9" opacity="0.5"/><rect x="600" y="-400" width="96" height="96" fill="#f1f5f9" opacity="0.5"/><rect x="600" y="-300" width="96" height="96" fill="#f1f5f9" opacity="0.5"/><rect x="600" y="-200" width="96" height="96" fill="#f1f5f9" opacity="0.5"/><rect x="600" y="-100" width="96" height="96" fill="#f1f5f9" opacity="0.5"/><rect x="600" y="0" width="96" height="96" fill="#f1f5f9" opacity="0.5"/><rect x="600" y="100" width="96" height="96" fill="#f1f5f9" opacity="0.5"/><rect x="600" y="200" width="96" height="96" fill="#f1f5f9" opacity="0.5"/><rect x="600" y="300" width="96" height="96" fill="#f1f5f9" opacity="0.5"/><rect x="600" y="400" width="96" height="96" fill="#f1f5f9" opacity="0.5"/><rect x="600" y="500" width="96" height="96" fill="#f1f5f9" opacity="0.5"/><rect x="600" y="600" width="96" height="96" fill="#f1f5f9" opacity="0.5"/><rect x="600" y="700" width="96" height="96" fill="#f1f5f9" opacity="0.5"/><rect x="600" y="800" width="96" height="96" fill="#f1f5f9" opacity="0.5"/><rect x="600" y="900" width="96" height="96" fill="#f1f5f9" opacity="0.5"/><rect x="600" y="1000" width="96" height="96" fill="#f1f5f9" opacity="0.5"/><rect x="700" y="-1000" width="96" height="96" fill="#f1f5f9" opacity="0.5"/><rect x="700" y="-900" width="96" height="96" fill="#f1f5f9" opacity="0.5"/><rect x="700" y="-800" width="96" height="96" fill="#f1f5f9" opacity="0.5"/><rect x="700" y="-700" width="96" height="96" fill="#f1f5f9" opacity="0.5"/><rect x="700" y="-600" width="96" height="96" fill="#f1f5f9" opacity="0.5"/><rect x="700" y="-500" width="96" height="96" fill="#f1f5f9" opacity="0.5"/><rect x="700" y="-400" width="96" height="96" fill="#f1f5f9" opacity="0.5"/><rect x="700" y="-300" width="96" height="96" fill="#f1f5f9" opacity="0.5"/><rect x="700" y="-200" width="96" height="96" fill="#f1f5f9" opacity="0.5"/><rect x="700" y="-100" width="96" height="96" fill="#f1f5f9" opacity="0.5"/><rect x="700" y="0" width="96" height="96" fill="#f1f5f9" opacity="0.5"/><rect x="700" y="100" width="96" height="96" fill="#f1f5f9" opacity="0.5"/><rect x="700" y="200" width="96" height="96" fill="#f1f5f9" opacity="0.5"/><rect x="700" y="300" width="96" height="96" fill="#f1f5f9" opacity="0.5"/><rect x="700" y="400" width="96" height="96" fill="#f1f5f9" opacity="0.5"/><rect x="700" y="500" width="96" height="96" fill="#f1f5f9" opacity="0.5"/><rect x="700" y="600" width="96" height="96" fill="#f1f5f9" opacity="0.5"/><rect x="700" y="700" width="96" height="96" fill="#f1f5f9" opacity="0.5"/><rect x="700" y="800" width="96" height="96" fill="#f1f5f9" opacity="0.5"/><rect x="700" y="900" width="96" height="96" fill="#f1f5f9" opacity="0.5"/><rect x="700" y="1000" width="96" height="96" fill="#f1f5f9" opacity="0.5"/><rect x="800" y="-1000" width="96" height="96" fill="#f1f5f9" opacity="0.5"/><rect x="800" y="-900" width="96" height="96" fill="#f1f5f9" opacity="0.5"/><rect x="800" y="-800" width="96" height="96" fill="#f1f5f9" opacity="0.5"/><rect x="800" y="-700" width="96" height="96" fill="#f1f5f9" opacity="0.5"/><rect x="800" y="-600" width="96" height="96" fill="#f1f5f9" opacity="0.5"/><rect x="800" y="-500" width="96" height="96" fill="#f1f5f9" opacity="0.5"/><rect x="800" y="-400" width="96" height="96" fill="#f1f5f9" opacity="0.5"/><rect x="800" y="-300" width="96" height="96" fill="#f1f5f9" opacity="0.5"/><rect x="800" y="-200" width="96" height="96" fill="#f1f5f9" opacity="0.5"/><rect x="800" y="-100" width="96" height="96" fill="#f1f5f9" opacity="0.5"/><rect x="800" y="0" width="96" height="96" fill="#f1f5f9" opacity="0.5"/><rect x="800" y="100" width="96" height="96" fill="#f1f5f9" opacity="0.5"/><rect x="800" y="200" width="96" height="96" fill="#f1f5f9" opacity="0.5"/><rect x="800" y="300" width="96" height="96" fill="#f1f5f9" opacity="0.5"/><rect x="800" y="400" width="96" height="96" fill="#f1f5f9" opacity="0.5"/><rect x="800" y="500" width="96" height="96" fill="#f1f5f9" opacity="0.5"/><rect x="800" y="600" width="96" height="96" fill="#f1f5f9" opacity="0.5"/><rect x="800" y="700" width="96" height="96" fill="#f1f5f9" opacity="0.5"/><rect x="800" y="800" width="96" height="96" fill="#f1f5f9" opacity="0.5"/><rect x="800" y="900" width="96" height="96" fill="#f1f5f9" opacity="0.5"/><rect x="800" y="1000" width="96" height="96" fill="#f1f5f9" opacity="0.5"/><rect x="900" y="-1000" width="96" height="96" fill="#f1f5f9" opacity="0.5"/><rect x="900" y="-900" width="96" height="96" fill="#f1f5f9" opacity="0.5"/><rect x="900" y="-800" width="96" height="96" fill="#f1f5f9" opacity="0.5"/><rect x="900" y="-700" width="96" height="96" fill="#f1f5f9" opacity="0.5"/><rect x="900" y="-600" width="96" height="96" fill="#f1f5f9" opacity="0.5"/><rect x="900" y="-500" width="96" height="96" fill="#f1f5f9" opacity="0.5"/><rect x="900" y="-400" width="96" height="96" fill="#f1f5f9" opacity="0.5"/><rect x="900" y="-300" width="96" height="96" fill="#f1f5f9" opacity="0.5"/><rect x="900" y="-200" width="96" height="96" fill="#f1f5f9" opacity="0.5"/><rect x="900" y="-100" width="96" height="96" fill="#f1f5f9" opacity="0.5"/><rect x="900" y="0" width="96" height="96" fill="#f1f5f9" opacity="0.5"/><rect x="900" y="100" width="96" height="96" fill="#f1f5f9" opacity="0.5"/><rect x="900" y="200" width="96" height="96" fill="#f1f5f9" opacity="0.5"/><rect x="900" y="300" width="96" height="96" fill="#f1f5f9" opacity="0.5"/><rect x="900" y="400" width="96" height="96" fill="#f1f5f9" opacity="0.5"/><rect x="900" y="500" width="96" height="96" fill="#f1f5f9" opacity="0.5"/><rect x="900" y="600" width="96" height="96" fill="#f1f5f9" opacity="0.5"/><rect x="900" y="700" width="96" height="96" fill="#f1f5f9" opacity="0.5"/><rect x="900" y="800" width="96" height="96" fill="#f1f5f9" opacity="0.5"/><rect x="900" y="900" width="96" height="96" fill="#f1f5f9" opacity="0.5"/><rect x="900" y="1000" width="96" height="96" fill="#f1f5f9" opacity="0.5"/><rect x="1000" y="-1000" width="96" height="96" fill="#f1f5f9" opacity="0.5"/><rect x="1000" y="-900" width="96" height="96" fill="#f1f5f9" opacity="0.5"/><rect x="1000" y="-800" width="96" height="96" fill="#f1f5f9" opacity="0.5"/><rect x="1000" y="-700" width="96" height="96" fill="#f1f5f9" opacity="0.5"/><rect x="1000" y="-600" width="96" height="96" fill="#f1f5f9" opacity="0.5"/><rect x="1000" y="-500" width="96" height="96" fill="#f1f5f9" opacity="0.5"/><rect x="1000" y="-400" width="96" height="96" fill="#f1f5f9" opacity="0.5"/><rect x="1000" y="-300" width="96" height="96" fill="#f1f5f9" opacity="0.5"/><rect x="1000" y="-200" width="96" height="96" fill="#f1f5f9" opacity="0.5"/><rect x="1000" y="-100" width="96" height="96" fill="#f1f5f9" opacity="0.5"/><rect x="1000" y="0" width="96" height="96" fill="#f1f5f9" opacity="0.5"/><rect x="1000" y="100" width="96" height="96" fill="#f1f5f9" opacity="0.5"/><rect x="1000" y="200" width="96" height="96" fill="#f1f5f9" opacity="0.5"/><rect x="1000" y="300" width="96" height="96" fill="#f1f5f9" opacity="0.5"/><rect x="1000" y="400" width="96" height="96" fill="#f1f5f9" opacity="0.5"/><rect x="1000" y="500" width="96" height="96" fill="#f1f5f9" opacity="0.5"/><rect x="1000" y="600" width="96" height="96" fill="#f1f5f9" opacity="0.5"/><rect x="1000" y="700" width="96" height="96" fill="#f1f5f9" opacity="0.5"/><rect x="1000" y="800" width="96" height="96" fill="#f1f5f9" opacity="0.5"/><rect x="1000" y="900" width="96" height="96" fill="#f1f5f9" opacity="0.5"/><rect x="1000" y="1000" width="96" height="96" fill="#f1f5f9" opacity="0.5"/><rect x="-200" y="-400" width="96" height="96" fill="#6366f1" filter="url(#glow)" opacity="0.6"/><rect x="0" y="-1000" width="96" height="96" fill="#6366f1" filter="url(#glow)" opacity="0.6"/><rect x="-700" y="-800" width="96" height="96" fill="#3b82f6" filter="url(#glow)" opacity="0.6"/><rect x="700" y="-600" width="96" height="96" fill="#3b82f6" filter="url(#glow)" opacity="0.6"/><rect x="-1000" y="100" width="96" height="96" fill="#3b82f6" filter="url(#glow)" opacity="0.6"/><rect x="400" y="-1000" width="96" height="96" fill="#3b82f6" filter="url(#glow)" opacity="0.6"/><rect x="-1000" y="-500" width="96" height="96" fill="#a855f7" filter="url(#glow)" opacity="0.6"/><rect x="900" y="200" width="96" height="96" fill="#6366f1" filter="url(#glow)" opacity="0.6"/><rect x="-800" y="300" width="96" height="96" fill="#6366f1" filter="url(#glow)" opacity="0.6"/><rect x="300" y="400" width="96" height="96" fill="#3b82f6" filter="url(#glow)" opacity="0.6"/><rect x="-400" y="-900" width="96" height="96" fill="#a855f7" filter="url(#glow)" opacity="0.6"/><rect x="-400" y="-200" width="96" height="96" fill="#3b82f6" filter="url(#glow)" opacity="0.6"/><rect x="-600" y="300" width="96" height="96" fill="#a855f7" filter="url(#glow)" opacity="0.6"/><rect x="-600" y="500" width="96" height="96" fill="#6366f1" filter="url(#glow)" opacity="0.6"/><rect x="-600" y="-700" width="96" height="96" fill="#a855f7" filter="url(#glow)" opacity="0.6"/><rect x="800" y="800" width="96" height="96" fill="#6366f1" filter="url(#glow)" opacity="0.6"/><rect x="-400" y="200" width="96" height="96" fill="#a855f7" filter="url(#glow)" opacity="0.6"/><rect x="100" y="-400" width="96" height="96" fill="#3b82f6" filter="url(#glow)" opacity="0.6"/><rect x="-300" y="100" width="96" height="96" fill="#a855f7" filter="url(#glow)" opacity="0.6"/><rect x="0" y="300" width="96" height="96" fill="#6366f1" filter="url(#glow)" opacity="0.6"/><rect x="-900" y="-300" width="96" height="96" fill="#3b82f6" filter="url(#glow)" opacity="0.6"/><rect x="-500" y="600" width="96" height="96" fill="#a855f7" filter="url(#glow)" opacity="0.6"/><rect x="-900" y="-100" width="96" height="96" fill="#3b82f6" filter="url(#glow)" opacity="0.6"/><rect x="100" y="-500" width="96" height="96" fill="#3b82f6" filter="url(#glow)" opacity="0.6"/><rect x="700" y="0" width="96" height="96" fill="#3b82f6" filter="url(#glow)" opacity="0.6"/><rect x="-100" y="-900" width="96" height="96" fill="#a855f7" filter="url(#glow)" opacity="0.6"/><rect x="100" y="100" width="96" height="96" fill="#6366f1" filter="url(#glow)" opacity="0.6"/><rect x="-400" y="-800" width="96" height="96" fill="#a855f7" filter="url(#glow)" opacity="0.6"/><rect x="100" y="-200" width="96" height="96" fill="#6366f1" filter="url(#glow)" opacity="0.6"/><rect x="600" y="-1000" width="96" height="96" fill="#a855f7" filter="url(#glow)" opacity="0.6"/></g><rect x="200" y="1471.4915750548244" width="400" height="2" fill="#6366f1" opacity="0.5"/><text x="200" y="1461.4915750548244" fill="#64748b" font-family="monospace" font-size="24">SECTOR_23</text><rect x="200" y="559.0332050807774" width="400" height="2" fill="#6366f1" opacity="0.5"/><text x="200" y="549.0332050807774" fill="#64748b" font-family="monospace" font-size="24">SECTOR_28</text><rect x="200" y="486.442322190851" width="400" height="2" fill="#6366f1" opacity="0.5"/><text x="200" y="476.442322190851" fill="#64748b" font-family="monospace" font-size="24">SECTOR_31</text><rect x="200" y="894.6410210803151" width="400" height="2" fill="#6366f1" opacity="0.5"/><text x="200" y="884.6410210803151" fill="#64748b" font-family="monospace" font-size="24">SECTOR_59</text><rect x="200" y="808.836633618921" width="400" height="2" fill="#6366f1" opacity="0.5"/><text x="200" y="798.836633618921" fill="#64748b" font-family="monospace" font-size="24">SECTOR_28</text>
  
      <text x="100" y="100" fill="#64748b" font-family="monospace" font-size="32" font-weight="bold">SYSTEM IDENT: GES-YATIRIM-FIZIBILI...</text>
      <text x="100" y="150" fill="#64748b" font-family="monospace" font-size="24">ENGINE_2 | SEC_LEVEL_ALPHA | YE7X211U</text>
      
      <g transform="translate(3500, 100)">
        <rect width="200" height="40" fill="#6366f1" opacity="0.2"/>
        <rect width="108.166822954081" height="40" fill="#6366f1"/>
        <text x="10" y="30" fill="#ffffff" font-family="monospace" font-size="20" font-weight="bold">PROCESSING</text>
      </g>
    
  
  <!-- Outer Frame -->
  <rect width="3840" height="2400" fill="none" stroke="#64748b" stroke-width="40" opacity="0.1"/>
</svg>