<svg width="3840" height="2400" viewBox="0 0 3840 2400" xmlns="http://www.w3.org/2000/svg">
  <defs>
    <filter id="shadow" x="-10%" y="-10%" width="120%" height="120%">
      <feDropShadow dx="0" dy="30" stdDeviation="40" flood-opacity="0.08" />
    </filter>
  </defs>
  
  <rect width="100%" height="100%" fill="#f4f6f9" />
  
  <g transform="translate(400, 400)" filter="url(#shadow)">
    <!-- White Card Background -->
    <rect width="3040" height="1600" rx="80" fill="#ffffff" />
    
    <!-- Chart Content -->
    
        <line x1="200" y1="400" x2="2840" y2="400" stroke="#f1f5f9" stroke-width="8" />
        <line x1="200" y1="700" x2="2840" y2="700" stroke="#f1f5f9" stroke-width="8" />
        <line x1="200" y1="1000" x2="2840" y2="1000" stroke="#f1f5f9" stroke-width="8" />
        <line x1="200" y1="1300" x2="2840" y2="1300" stroke="#f1f5f9" stroke-width="8" />
        <rect x="280" y="764.0247301664203" width="80" height="535.9752698335797" rx="20" fill="#84cc16" fill-opacity="0.8" /><rect x="622.8571428571429" y="443.89908402226865" width="80" height="856.1009159777313" rx="20" fill="#84cc16" fill-opacity="0.8" /><rect x="965.7142857142857" y="862.4356868444011" width="80" height="437.56431315559894" rx="20" fill="#84cc16" fill-opacity="0.8" /><rect x="1308.5714285714284" y="431.72413154970855" width="80" height="868.2758684502915" rx="20" fill="#84cc16" fill-opacity="0.8" /><rect x="1651.4285714285713" y="658.3954621106386" width="80" height="641.6045378893614" rx="20" fill="#84cc16" fill-opacity="0.8" /><rect x="1994.2857142857142" y="1084.937294269912" width="80" height="215.06270573008806" rx="20" fill="#84cc16" fill-opacity="0.8" /><rect x="2337.142857142857" y="626.9033260177821" width="80" height="673.0966739822179" rx="20" fill="#84cc16" fill-opacity="0.8" /><rect x="2680" y="1018.8656867947429" width="80" height="281.13431320525706" rx="20" fill="#84cc16" fill-opacity="0.8" /><path d="M 320 406.65991930291057 L 662.8571428571429 301.8957821186632 L 1005.7142857142857 580.9499808121473 L 1348.5714285714284 577.069891942665 L 1691.4285714285713 517.1472047455609 L 2034.2857142857142 518.4342240449041 L 2377.142857142857 571.9434610102326 L 2720 676.6220476012677" fill="none" stroke="#0ea5e9" stroke-width="20" stroke-linejoin="round" /><circle cx="320" cy="406.65991930291057" r="28" fill="#0ea5e9" stroke="#fff" stroke-width="8" /><circle cx="662.8571428571429" cy="301.8957821186632" r="28" fill="#0ea5e9" stroke="#fff" stroke-width="8" /><circle cx="1005.7142857142857" cy="580.9499808121473" r="28" fill="#0ea5e9" stroke="#fff" stroke-width="8" /><circle cx="1348.5714285714284" cy="577.069891942665" r="28" fill="#0ea5e9" stroke="#fff" stroke-width="8" /><circle cx="1691.4285714285713" cy="517.1472047455609" r="28" fill="#0ea5e9" stroke="#fff" stroke-width="8" /><circle cx="2034.2857142857142" cy="518.4342240449041" r="28" fill="#0ea5e9" stroke="#fff" stroke-width="8" /><circle cx="2377.142857142857" cy="571.9434610102326" r="28" fill="#0ea5e9" stroke="#fff" stroke-width="8" /><circle cx="2720" cy="676.6220476012677" r="28" fill="#0ea5e9" stroke="#fff" stroke-width="8" /><line x1="200" y1="1300" x2="2840" y2="1300" stroke="#cbd5e1" stroke-width="12" stroke-linecap="round" />
  </g>
</svg>