<svg width="2560" height="1600" viewBox="0 0 2560 1600" xmlns="http://www.w3.org/2000/svg">
  <defs>
    <filter id="shadowDown" x="-10%" y="-10%" width="120%" height="120%">
      <feDropShadow dx="0" dy="20" stdDeviation="30" flood-opacity="0.05" />
    </filter>
    <filter id="shadowRight" x="-10%" y="-10%" width="120%" height="120%">
      <feDropShadow dx="20" dy="0" stdDeviation="30" flood-opacity="0.05" />
    </filter>
  </defs>
  
  <rect width="100%" height="100%" fill="#f0fdfa" />
  
  <rect x="0" y="0" width="400" height="1600" fill="#ffffff" filter="url(#shadowRight)"/><rect x="40" y="100" width="148.5145255876705" height="30" rx="15" fill="#ccfbf1"/><rect x="40" y="200" width="220.57686576619744" height="30" rx="15" fill="#ccfbf1"/><rect x="40" y="300" width="181.73348135314882" height="30" rx="15" fill="#ccfbf1"/><rect x="40" y="400" width="155.6538171460852" height="30" rx="15" fill="#ccfbf1"/><rect x="40" y="500" width="232.95910104177892" height="30" rx="15" fill="#ccfbf1"/><rect x="40" y="600" width="229.37302099075168" height="30" rx="15" fill="#ccfbf1"/><rect x="500" y="100" width="900" height="600" rx="40" fill="#ffffff" filter="url(#shadowDown)"/><rect x="600" y="495.8304410567507" width="60" height="104.16955894324929" rx="10" fill="#14b8a6"/><rect x="720" y="412.281159311533" width="60" height="187.71884068846703" rx="10" fill="#14b8a6"/><rect x="840" y="385.03422311041504" width="60" height="214.96577688958496" rx="10" fill="#14b8a6"/><rect x="960" y="299.81359594967216" width="60" height="300.18640405032784" rx="10" fill="#14b8a6"/><rect x="1080" y="370.9163841092959" width="60" height="229.0836158907041" rx="10" fill="#14b8a6"/><rect x="1200" y="466.0381869180128" width="60" height="133.9618130819872" rx="10" fill="#14b8a6"/><rect x="1480" y="100" width="900" height="600" rx="40" fill="#ffffff" filter="url(#shadowDown)"/><path d="M 1580 500 L 1720 381.4994615968317 L 1860 465.59160260949284 L 2000 382.1164180058986 L 2140 302.6910970220342 L 2280 219.52640514355153" fill="none" stroke="#0d9488" stroke-width="16" stroke-linejoin="round"/><rect x="500" y="800" width="900" height="600" rx="40" fill="#ffffff" filter="url(#shadowDown)"/><path d="M 600 1200 L 740 920.9985818015411 L 880 922.4557232111692 L 1020 1082.580040837638 L 1160 1194.645099900663 L 1300 1041.8503212975338" fill="none" stroke="#0d9488" stroke-width="16" stroke-linejoin="round"/><rect x="1480" y="800" width="900" height="600" rx="40" fill="#ffffff" filter="url(#shadowDown)"/><path d="M 1580 1200 L 1720 1091.73629488796 L 1860 1033.5114625515416 L 2000 1034.5094671240076 L 2140 1013.8301962986588 L 2280 1022.3030139924958" fill="none" stroke="#0d9488" stroke-width="16" stroke-linejoin="round"/><rect x="500" y="1500" width="900" height="600" rx="40" fill="#ffffff" filter="url(#shadowDown)"/><path d="M 600 1900 L 740 1690.385310864076 L 880 1834.382606507279 L 1020 1764.1680778935552 L 1160 1630.1400183932856 L 1300 1640.8383656991646" fill="none" stroke="#0d9488" stroke-width="16" stroke-linejoin="round"/>
  
      <rect x="2560" y="1400" width="2560" height="200" transform="translate(-2560,0)"/>
      <text x="100" y="1520" fill="#0f172a" font-family="sans-serif" font-size="48" font-weight="bold">SYSTEM REF: PAZARYERI-HAKEDIS-MUTABAKAT-MOTORU</text>
      <text x="100" y="1570" fill="#0f172a" opacity="0.6" font-family="sans-serif" font-size="32">ENTERPRISE EXCEL OS // LIGHT THEME v1.0 // 4K NATIVE</text>
    
</svg>