<svg xmlns="http://www.w3.org/2000/svg" viewBox="0 0 1600 1000" width="1600" height="1000">
  <defs>
    <filter id="cardShadow" x="-5%" y="-5%" width="110%" height="115%">
      <feDropShadow dx="0" dy="24" stdDeviation="32" flood-color="#0f172a" flood-opacity="0.06" />
      <feDropShadow dx="0" dy="4" stdDeviation="8" flood-color="#0f172a" flood-opacity="0.04" />
    </filter>
  </defs>
  
  <!-- Canvas Background -->
  <rect width="100%" height="100%" fill="#f8fafc" />
  
  <!-- Subtle Grid Pattern -->
  <g stroke="#e2e8f0" stroke-width="1" opacity="0.4">
    <line x1="0" y1="200" x2="1600" y2="200" />
    <line x1="0" y1="400" x2="1600" y2="400" />
    <line x1="0" y1="600" x2="1600" y2="600" />
    <line x1="0" y1="800" x2="1600" y2="800" />
  </g>
  
  <!-- Main Presentation Card -->
  <rect x="180" y="110" width="1240" height="780" rx="32" fill="#ffffff" stroke="#e2e8f0" stroke-width="2" filter="url(#cardShadow)" />
  
  <!-- Card Header -->
  <g transform="translate(240, 170)">
    <rect x="0" y="0" width="200" height="32" rx="16" fill="#ecfdf5" stroke="#a7f3d0" stroke-width="1" />
    <text x="100" y="21" fill="#065f46" font-family="-apple-system, BlinkMacSystemFont, 'Segoe UI', Roboto, sans-serif" font-size="12" font-weight="700" text-anchor="middle">NAKİT AKIŞI</text>
    <text x="0" y="70" fill="#0f172a" font-family="-apple-system, BlinkMacSystemFont, 'Segoe UI', Roboto, sans-serif" font-size="26" font-weight="800">POS Komisyon &amp; Net Tahsilat Kontrol Sistemi</text>
  </g>
  
  <!-- Chart Area (Centered) -->
  <g transform="translate(180, 230)">
    <g>
      <path d="M 620 210 L 654.6410161513776 230 L 654.6410161513776 270 L 620 290 L 585.3589838486224 270 L 585.3589838486224 230  Z" fill="none" stroke="#e2e8f0" stroke-width="2" /><path d="M 620 170 L 689.282032302755 210 L 689.282032302755 290 L 620 330 L 550.717967697245 290 L 550.717967697245 210  Z" fill="none" stroke="#e2e8f0" stroke-width="2" /><path d="M 620 130 L 723.9230484541326 190 L 723.9230484541326 310 L 620 370 L 516.0769515458674 310.00000000000006 L 516.0769515458674 190  Z" fill="none" stroke="#e2e8f0" stroke-width="2" /><path d="M 620 90 L 758.5640646055101 170 L 758.5640646055102 330 L 620 410 L 481.43593539448983 330.00000000000006 L 481.43593539448983 170  Z" fill="none" stroke="#e2e8f0" stroke-width="2" />
      <path d="M 620 114 L 710.0666419935816 198 L 751.6358613752348 326 L 620 362 L 509.1487483155919 314.00000000000006 L 495.29234185504083 178  Z" fill="#10b981" fill-opacity="0.3" stroke="#047857" stroke-width="4" />
    </g>
  </g>
</svg>