<svg xmlns="http://www.w3.org/2000/svg" viewBox="0 0 1600 1000" width="1600" height="1000">
  <defs>
    <filter id="cardShadow" x="-5%" y="-5%" width="110%" height="115%">
      <feDropShadow dx="0" dy="24" stdDeviation="32" flood-color="#0f172a" flood-opacity="0.06" />
      <feDropShadow dx="0" dy="4" stdDeviation="8" flood-color="#0f172a" flood-opacity="0.04" />
    </filter>
  </defs>
  
  <!-- Canvas Background -->
  <rect width="100%" height="100%" fill="#f8fafc" />
  
  <!-- Subtle Grid Pattern -->
  <g stroke="#e2e8f0" stroke-width="1" opacity="0.4">
    <line x1="0" y1="200" x2="1600" y2="200" />
    <line x1="0" y1="400" x2="1600" y2="400" />
    <line x1="0" y1="600" x2="1600" y2="600" />
    <line x1="0" y1="800" x2="1600" y2="800" />
  </g>
  
  <!-- Main Presentation Card -->
  <rect x="180" y="110" width="1240" height="780" rx="32" fill="#ffffff" stroke="#e2e8f0" stroke-width="2" filter="url(#cardShadow)" />
  
  <!-- Card Header -->
  <g transform="translate(240, 170)">
    <rect x="0" y="0" width="200" height="32" rx="16" fill="#ecfdf5" stroke="#a7f3d0" stroke-width="1" />
    <text x="100" y="21" fill="#065f46" font-family="-apple-system, BlinkMacSystemFont, 'Segoe UI', Roboto, sans-serif" font-size="12" font-weight="700" text-anchor="middle">NAKİT AKIŞI</text>
    <text x="0" y="70" fill="#0f172a" font-family="-apple-system, BlinkMacSystemFont, 'Segoe UI', Roboto, sans-serif" font-size="26" font-weight="800">Stok Optimizasyon ABC Olu Stok Nakit</text>
  </g>
  
  <!-- Chart Area (Centered) -->
  <g transform="translate(180, 230)">
    <g><line x1="560" y1="156" x2="560" y2="140" stroke="#10b981" stroke-width="8" stroke-linecap="round"/><line x1="592.0935615927126" y1="160.22519754015553" x2="596.2346663143529" y2="144.77038431953045" stroke="#10b981" stroke-width="8" stroke-linecap="round"/><line x1="622" y1="172.61284993072962" x2="630" y2="158.7564434701786" stroke="#10b981" stroke-width="8" stroke-linecap="round"/><line x1="647.6812408671319" y1="192.3187591328681" x2="658.9949493661167" y2="181.00505063388334" stroke="#10b981" stroke-width="8" stroke-linecap="round"/><line x1="667.3871500692704" y1="218" x2="681.2435565298214" y2="210" stroke="#10b981" stroke-width="8" stroke-linecap="round"/><line x1="679.7748024598445" y1="247.90643840728742" x2="695.2296156804696" y2="243.76533368564708" stroke="#10b981" stroke-width="8" stroke-linecap="round"/><line x1="684" y1="280" x2="700" y2="280" stroke="#10b981" stroke-width="8" stroke-linecap="round"/><line x1="679.7748024598445" y1="312.0935615927126" x2="695.2296156804696" y2="316.2346663143529" stroke="#10b981" stroke-width="8" stroke-linecap="round"/><line x1="667.3871500692704" y1="342" x2="681.2435565298214" y2="350" stroke="#10b981" stroke-width="8" stroke-linecap="round"/><line x1="647.6812408671319" y1="367.6812408671319" x2="658.9949493661167" y2="378.99494936611666" stroke="#10b981" stroke-width="8" stroke-linecap="round"/><line x1="622" y1="387.3871500692704" x2="630" y2="401.2435565298214" stroke="#10b981" stroke-width="8" stroke-linecap="round"/><line x1="592.0935615927126" y1="399.77480245984447" x2="596.2346663143529" y2="415.2296156804696" stroke="#cbd5e1" stroke-width="8" stroke-linecap="round"/><line x1="560" y1="404" x2="560" y2="420" stroke="#cbd5e1" stroke-width="8" stroke-linecap="round"/><line x1="527.9064384072874" y1="399.77480245984447" x2="523.7653336856471" y2="415.2296156804696" stroke="#cbd5e1" stroke-width="8" stroke-linecap="round"/><line x1="498" y1="387.38715006927043" x2="490" y2="401.24355652982143" stroke="#cbd5e1" stroke-width="8" stroke-linecap="round"/><line x1="472.3187591328681" y1="367.6812408671319" x2="461.00505063388334" y2="378.99494936611666" stroke="#cbd5e1" stroke-width="8" stroke-linecap="round"/><line x1="452.61284993072957" y1="342" x2="438.75644347017857" y2="350" stroke="#cbd5e1" stroke-width="8" stroke-linecap="round"/><line x1="440.22519754015553" y1="312.0935615927126" x2="424.7703843195304" y2="316.2346663143529" stroke="#cbd5e1" stroke-width="8" stroke-linecap="round"/><line x1="436" y1="280" x2="420" y2="280" stroke="#cbd5e1" stroke-width="8" stroke-linecap="round"/><line x1="440.22519754015553" y1="247.90643840728742" x2="424.7703843195304" y2="243.76533368564708" stroke="#cbd5e1" stroke-width="8" stroke-linecap="round"/><line x1="452.6128499307296" y1="218" x2="438.7564434701786" y2="210" stroke="#cbd5e1" stroke-width="8" stroke-linecap="round"/><line x1="472.3187591328681" y1="192.3187591328681" x2="461.00505063388334" y2="181.00505063388334" stroke="#cbd5e1" stroke-width="8" stroke-linecap="round"/><line x1="497.99999999999994" y1="172.61284993072962" x2="489.99999999999994" y2="158.75644347017862" stroke="#cbd5e1" stroke-width="8" stroke-linecap="round"/><line x1="527.9064384072874" y1="160.22519754015553" x2="523.7653336856471" y2="144.77038431953045" stroke="#cbd5e1" stroke-width="8" stroke-linecap="round"/><text x="560" y="296" fill="#0f172a" font-family="sans-serif" font-size="52" font-weight="900" text-anchor="middle">%47</text><line x1="720" y1="102" x2="720" y2="90" stroke="#047857" stroke-width="6" stroke-linecap="round"/><line x1="744.1033255612459" y1="105.81759172897803" x2="747.8115294937453" y2="94.40491353343619" stroke="#047857" stroke-width="6" stroke-linecap="round"/><line x1="765.8472496788129" y1="116.8966744387541" x2="772.9006727063226" y2="107.18847050625473" stroke="#047857" stroke-width="6" stroke-linecap="round"/><line x1="783.1033255612459" y1="134.15275032118709" x2="792.8115294937453" y2="127.09932729367742" stroke="#047857" stroke-width="6" stroke-linecap="round"/><line x1="794.1824082710219" y1="155.8966744387541" x2="805.5950864665638" y2="152.18847050625473" stroke="#047857" stroke-width="6" stroke-linecap="round"/><line x1="798" y1="180" x2="810" y2="180" stroke="#047857" stroke-width="6" stroke-linecap="round"/><line x1="794.1824082710219" y1="204.1033255612459" x2="805.5950864665638" y2="207.81152949374527" stroke="#047857" stroke-width="6" stroke-linecap="round"/><line x1="783.1033255612459" y1="225.8472496788129" x2="792.8115294937453" y2="232.90067270632255" stroke="#047857" stroke-width="6" stroke-linecap="round"/><line x1="765.8472496788129" y1="243.1033255612459" x2="772.9006727063226" y2="252.81152949374527" stroke="#047857" stroke-width="6" stroke-linecap="round"/><line x1="744.1033255612459" y1="254.18240827102198" x2="747.8115294937453" y2="265.5950864665638" stroke="#047857" stroke-width="6" stroke-linecap="round"/><line x1="720" y1="258" x2="720" y2="270" stroke="#047857" stroke-width="6" stroke-linecap="round"/><line x1="695.8966744387541" y1="254.18240827102198" x2="692.1884705062547" y2="265.5950864665638" stroke="#047857" stroke-width="6" stroke-linecap="round"/><line x1="674.1527503211871" y1="243.1033255612459" x2="667.0993272936774" y2="252.81152949374527" stroke="#047857" stroke-width="6" stroke-linecap="round"/><line x1="656.8966744387541" y1="225.84724967881291" x2="647.1884705062547" y2="232.9006727063226" stroke="#047857" stroke-width="6" stroke-linecap="round"/><line x1="645.8175917289781" y1="204.10332556124592" x2="634.4049135334362" y2="207.81152949374533" stroke="#047857" stroke-width="6" stroke-linecap="round"/><line x1="642" y1="180" x2="630" y2="180" stroke="#cbd5e1" stroke-width="6" stroke-linecap="round"/><line x1="645.817591728978" y1="155.8966744387541" x2="634.4049135334362" y2="152.18847050625476" stroke="#cbd5e1" stroke-width="6" stroke-linecap="round"/><line x1="656.8966744387541" y1="134.1527503211871" x2="647.1884705062547" y2="127.09932729367742" stroke="#cbd5e1" stroke-width="6" stroke-linecap="round"/><line x1="674.1527503211871" y1="116.8966744387541" x2="667.0993272936774" y2="107.18847050625475" stroke="#cbd5e1" stroke-width="6" stroke-linecap="round"/><line x1="695.8966744387541" y1="105.81759172897803" x2="692.1884705062547" y2="94.40491353343619" stroke="#cbd5e1" stroke-width="6" stroke-linecap="round"/><text x="720" y="192" fill="#0f172a" font-family="sans-serif" font-size="32" font-weight="800" text-anchor="middle">%74</text></g>
  </g>
</svg>