<svg width="3840" height="2400" viewBox="0 0 3840 2400" xmlns="http://www.w3.org/2000/svg">
  <defs>
    <filter id="shadow" x="-10%" y="-10%" width="120%" height="120%">
      <feDropShadow dx="0" dy="30" stdDeviation="40" flood-opacity="0.08" />
    </filter>
  </defs>
  
  <rect width="100%" height="100%" fill="#f4f6f9" />
  
  <g transform="translate(400, 400)" filter="url(#shadow)">
    <!-- White Card Background -->
    <rect width="3040" height="1600" rx="80" fill="#ffffff" />
    
    <!-- Chart Content -->
    
        <line x1="200" y1="400" x2="2840" y2="400" stroke="#f1f5f9" stroke-width="8" />
        <line x1="200" y1="700" x2="2840" y2="700" stroke="#f1f5f9" stroke-width="8" />
        <line x1="200" y1="1000" x2="2840" y2="1000" stroke="#f1f5f9" stroke-width="8" />
        <line x1="200" y1="1300" x2="2840" y2="1300" stroke="#f1f5f9" stroke-width="8" />
        <rect x="620" y="391.34696503169835" width="120" height="908.6530349683017" rx="40" fill="#0ea5e9" /><rect x="820" y="641.928327945061" width="120" height="658.071672054939" rx="40" fill="#14b8a6" /><rect x="1020" y="412.8895475063473" width="120" height="887.1104524936527" rx="40" fill="#84cc16" /><rect x="1220" y="487.0455400785431" width="120" height="812.9544599214569" rx="40" fill="#eab308" /><rect x="1420" y="358.55502276681364" width="120" height="941.4449772331864" rx="40" fill="#f97316" /><rect x="1620" y="398.30929294694215" width="120" height="901.6907070530578" rx="40" fill="#0ea5e9" /><rect x="1820" y="704.8668601550162" width="120" height="595.1331398449838" rx="40" fill="#14b8a6" /><rect x="2020" y="402.0001806085929" width="120" height="897.9998193914071" rx="40" fill="#84cc16" /><rect x="2220" y="216.74408845137805" width="120" height="1083.255911548622" rx="40" fill="#eab308" /><line x1="200" y1="1300" x2="2840" y2="1300" stroke="#cbd5e1" stroke-width="12" stroke-linecap="round" />
  </g>
</svg>